<?xml version="1.0" encoding="utf-8"?>
<!-- Generator: Adobe Illustrator 27.2.0, SVG Export Plug-In . SVG Version: 6.00 Build 0)  -->
<svg version="1.1" id="Layer_1" xmlns="http://www.w3.org/2000/svg" xmlns:xlink="http://www.w3.org/1999/xlink" x="0px" y="0px"
	 viewBox="0 0 512 512" style="enable-background:new 0 0 512 512;" xml:space="preserve">
<style type="text/css">
	.st0{fill:#63BBA4;}
	.st1{fill:#FEC957;}
</style>
<g>
	<path class="st0" d="M290.29,173.98v81.16l131.9-118.18L290.29,10.33v70.35c-154.32,0-184.66,182.9-184.66,182.9
		C149.33,181.81,206.54,173.98,290.29,173.98z"/>
	<path class="st0" d="M290.29,173.98h-10.33v81.16c0,4.08,2.39,7.77,6.12,9.43c3.73,1.67,8.07,0.99,11.11-1.74l131.9-118.18
		c2.14-1.92,3.39-4.64,3.44-7.52c0.05-2.88-1.1-5.64-3.18-7.63L297.45,2.88c-2.99-2.87-7.39-3.68-11.21-2.05
		c-3.81,1.63-6.28,5.36-6.28,9.5v70.35h10.33V70.35c-40.63-0.04-73.79,12.17-99.88,30.44c-39.18,27.43-62.64,67.74-76.58,100.93
		c-13.92,33.24-18.31,59.65-18.4,60.17c-0.83,4.98,2.09,9.85,6.87,11.47c4.78,1.63,10.06-0.46,12.44-4.91
		c10.52-19.69,21.65-34.56,33.53-45.9c17.83-16.97,37.35-26.3,60.63-31.72c23.25-5.39,50.21-6.54,81.39-6.52V173.98h-10.33H290.29
		v-10.33c-21.1,0-40.74,0.48-59.2,2.57c-27.66,3.11-52.88,9.91-75.48,24.38c-22.61,14.45-42.13,36.33-59.09,68.12l9.11,4.87
		l10.19,1.69l0.01-0.07c0.32-2.06,8.4-46.76,34.38-89.9c12.97-21.59,30.32-42.71,53.11-58.33c22.82-15.61,51-25.93,86.96-25.97
		c2.72,0,5.38-1.1,7.31-3.03c1.92-1.92,3.03-4.59,3.03-7.31V34.58L407,136.7l-106.38,95.31v-58.03c0-2.72-1.1-5.38-3.03-7.31
		c-1.92-1.92-4.59-3.03-7.31-3.03V173.98z"/>
	<path class="st1" d="M221.71,338.02v-81.16L89.8,375.04l131.9,126.62v-70.35c154.32,0,184.66-182.9,184.66-182.9
		C362.68,330.19,305.46,338.02,221.71,338.02z"/>
	<path class="st1" d="M221.71,338.02h10.33v-81.16c0-4.08-2.39-7.77-6.12-9.43c-3.73-1.67-8.07-0.99-11.11,1.74L82.91,367.35
		c-2.14,1.92-3.39,4.64-3.44,7.52c-0.05,2.88,1.1,5.64,3.18,7.63l131.9,126.62c2.99,2.87,7.39,3.68,11.21,2.05
		c3.81-1.63,6.28-5.36,6.28-9.5v-70.35h-10.33v10.33c40.63,0.04,73.79-12.17,99.88-30.44c39.18-27.43,62.64-67.74,76.58-100.93
		c13.92-33.24,18.31-59.65,18.4-60.17c0.83-4.98-2.09-9.85-6.87-11.47c-4.78-1.63-10.06,0.46-12.44,4.91
		c-10.52,19.68-21.65,34.56-33.53,45.9c-17.83,16.97-37.35,26.3-60.63,31.72c-23.25,5.39-50.21,6.54-81.39,6.52V338.02h10.33H221.71
		v10.33c21.1,0,40.74-0.48,59.2-2.57c27.66-3.11,52.88-9.91,75.48-24.38c22.61-14.45,42.13-36.33,59.09-68.12l-9.11-4.87
		l-10.19-1.69l-0.01,0.07c-0.32,2.06-8.4,46.76-34.38,89.9c-12.97,21.59-30.32,42.71-53.11,58.33c-22.82,15.61-51,25.93-86.96,25.97
		c-2.72,0-5.38,1.1-7.31,3.03c-1.92,1.92-3.03,4.59-3.03,7.31v46.11L105,375.3l106.38-95.31l0,58.03c0,2.72,1.1,5.38,3.03,7.31
		c1.92,1.92,4.59,3.03,7.31,3.03V338.02z"/>
</g>
</svg>
